<svg width="46" height="51" viewBox="0 0 46 51" fill="none" xmlns="http://www.w3.org/2000/svg">
<path d="M22.9999 6.37501C19.2655 6.37374 15.6316 7.71612 12.6441 10.2004C9.65666 12.6848 7.47703 16.1769 6.43276 20.152C5.3885 24.1273 5.53598 28.3708 6.85306 32.2451C8.17012 36.1194 10.5857 39.4151 13.7367 41.6372L15.7319 33.8959C15.9607 33.0073 16.4444 32.2256 17.1099 31.6693C17.7753 31.1129 18.5861 30.8122 19.4196 30.8125H26.5803C27.4134 30.812 28.2241 31.1124 28.8895 31.6684C29.5549 32.2245 30.0388 33.0056 30.2679 33.8937L32.2613 41.6372C34.7107 39.9107 36.7271 37.5263 38.1236 34.7054C39.5201 31.8843 40.2515 28.718 40.2499 25.5C40.2518 23.4477 39.9554 21.4085 39.3721 19.4607L41.191 18.7893C41.8235 20.8994 42.1666 23.1561 42.1666 25.5C42.1666 37.2364 33.5857 46.75 22.9999 46.75C12.4142 46.75 3.83325 37.2364 3.83325 25.5C3.83325 13.7636 12.4142 4.25001 22.9999 4.25001C25.0568 4.24776 27.1006 4.61298 29.0528 5.33164L28.4471 7.34826C26.6903 6.70156 24.851 6.37293 22.9999 6.37501ZM30.5439 42.704L28.4241 34.4802C28.3099 34.0358 28.0681 33.6447 27.7353 33.3663C27.4026 33.088 26.9971 32.9374 26.5803 32.9375H19.4196C19.003 32.9373 18.5976 33.0875 18.265 33.3655C17.9323 33.6434 17.6903 34.0341 17.5758 34.4781L15.4559 42.704C17.806 43.9722 20.3862 44.6292 22.9999 44.625C25.6137 44.6292 28.1938 43.9722 30.5439 42.704ZM34.4999 10.625V4.25001H36.4166V10.625H42.1666V12.75H36.4166V19.125H34.4999V12.75H28.7499V10.625H34.4999ZM18.2083 17C18.2083 16.4365 18.4102 15.896 18.7696 15.4974C19.1291 15.0989 19.6166 14.875 20.1249 14.875H25.8749C26.3832 14.875 26.8707 15.0989 27.2302 15.4974C27.5897 15.896 27.7916 16.4365 27.7916 17V24.4375C27.7916 25.001 27.5897 25.5415 27.2302 25.9401C26.8707 26.3386 26.3832 26.5625 25.8749 26.5625H20.1249C19.6166 26.5625 19.1291 26.3386 18.7696 25.9401C18.4102 25.5415 18.2083 25.001 18.2083 24.4375V17ZM20.1249 17V24.4375H25.8749V17H20.1249Z" fill="#DF1026"/>
</svg>
