<svg width="40" height="40" viewBox="0 0 40 40" fill="none" xmlns="http://www.w3.org/2000/svg">
<path d="M30.0001 10.8333C29.8896 8.18117 28.73 5.68153 26.7765 3.88431C24.823 2.08708 22.2356 1.1395 19.5834 1.25C16.9312 1.36051 14.4316 2.52006 12.6344 4.47356C10.8372 6.42707 9.88957 9.0145 10.0001 11.6667V19.1667H7.50008L6.66675 20V35C6.66675 35.8841 7.01794 36.7319 7.64306 37.357C8.26818 37.9821 9.11603 38.3333 10.0001 38.3333H30.0001C30.8841 38.3333 31.732 37.9821 32.3571 37.357C32.9822 36.7319 33.3334 35.8841 33.3334 35V20L32.5001 19.1667H30.0001V10.8333ZM31.6667 35C31.6667 35.442 31.4912 35.866 31.1786 36.1785C30.866 36.4911 30.4421 36.6667 30.0001 36.6667H10.0001C9.55805 36.6667 9.13413 36.4911 8.82157 36.1785C8.50901 35.866 8.33341 35.442 8.33341 35V20.8333H31.6667V35ZM24.1667 19.1667H15.8334V11.6667C15.8334 10.5616 16.2724 9.50179 17.0538 8.72039C17.8352 7.93899 18.895 7.5 20.0001 7.5C21.1052 7.5 22.165 7.93899 22.9464 8.72039C23.7278 9.50179 24.1667 10.5616 24.1667 11.6667V19.1667ZM28.3334 19.1667H25.8334V11.6667C25.8334 10.1196 25.2188 8.63584 24.1249 7.54188C23.0309 6.44792 21.5472 5.83334 20.0001 5.83334C18.453 5.83334 16.9693 6.44792 15.8753 7.54188C14.7813 8.63584 14.1667 10.1196 14.1667 11.6667V19.1667H11.6667V11.6667C11.6667 9.45653 12.5447 7.33692 14.1075 5.77411C15.6703 4.21131 17.7899 3.33334 20.0001 3.33334C22.2102 3.33334 24.3298 4.21131 25.8926 5.77411C27.4554 7.33692 28.3334 9.45653 28.3334 11.6667V19.1667Z" fill="#DF1026"/>
<path d="M16.6667 33.2L17.5001 34.1667H22.5001L23.3334 33.2L22.5917 28.7667C22.9902 28.278 23.2419 27.6863 23.3176 27.0604C23.3933 26.4344 23.29 25.7998 23.0195 25.2302C22.749 24.6606 22.3225 24.1795 21.7895 23.8426C21.2566 23.5056 20.6389 23.3268 20.0084 23.3268C19.3779 23.3268 18.7603 23.5056 18.2273 23.8426C17.6943 24.1795 17.2678 24.6606 16.9974 25.2302C16.7269 25.7998 16.6235 26.4344 16.6992 27.0604C16.7749 27.6863 17.0266 28.278 17.4251 28.7667L16.6667 33.2ZM20.0001 25C20.4421 25 20.866 25.1756 21.1786 25.4882C21.4912 25.8007 21.6667 26.2246 21.6667 26.6667C21.6649 26.8958 21.6159 27.1221 21.5227 27.3315C21.4295 27.5408 21.2942 27.7287 21.1251 27.8833L20.8751 28.6333L21.5167 32.5H18.4834L19.1667 28.6333L18.9167 27.8833C18.7401 27.7324 18.5969 27.5462 18.4965 27.3367C18.396 27.1271 18.3405 26.8989 18.3334 26.6667C18.3334 26.2246 18.509 25.8007 18.8216 25.4882C19.1341 25.1756 19.5581 25 20.0001 25Z" fill="#DF1026"/>
</svg>
