<svg width="44" height="45" viewBox="0 0 44 45" fill="none" xmlns="http://www.w3.org/2000/svg">
<path d="M32.2301 26.2125L37.9501 38.7C38.1701 39.2625 37.9501 39.9375 37.5101 40.1625C37.1801 40.275 36.8501 40.275 36.5201 40.1625L32.7801 38.1375L31.9001 42.4125C31.7901 42.8625 31.4601 43.2 30.9101 43.3125H30.8001C30.3601 43.3125 30.0301 43.0875 29.8101 42.6375L24.0901 30.2625" stroke="#DF1026" stroke-width="1.3" stroke-miterlimit="10"/>
<path d="M19.9099 30.2625L14.2999 42.6375C14.0799 42.975 13.7499 43.3125 13.3099 43.3125H13.1999C12.7599 43.3125 12.3199 42.975 12.2099 42.4125L11.3299 38.25L7.58989 40.275C7.03989 40.5 6.37989 40.275 6.15989 39.825C6.04989 39.4875 6.04989 39.15 6.15989 38.925L11.8799 26.4375" stroke="#DF1026" stroke-width="1.3" stroke-miterlimit="10"/>
<path d="M22.0001 24.975H21.4501C16.5001 24.6375 12.7601 20.3625 13.0901 15.4125C13.3101 10.35 17.4901 6.52504 22.4401 6.75004C27.3901 7.08754 31.1301 11.3625 30.9101 16.3125C30.6901 21.15 26.7301 24.975 22.0001 24.975Z" stroke="#DF1026" stroke-width="1.3" stroke-miterlimit="10"/>
<path d="M21.8901 29.8125C21.6701 29.8125 21.5601 29.7 21.4501 29.5875L19.3601 27.1125L16.3901 28.35C16.2801 28.4625 16.0601 28.4625 15.9501 28.35C15.8401 28.2375 15.7301 28.125 15.6201 28.0125L14.7401 24.975L11.6601 24.75C11.4401 24.75 11.3301 24.6375 11.2201 24.525C11.1101 24.4125 11.1101 24.1875 11.1101 24.075L11.5501 20.8125L8.80008 19.2375C8.69008 19.125 8.58008 19.0125 8.58008 18.9C8.58008 18.7875 8.58008 18.5625 8.69008 18.45L10.5601 15.75L8.80008 13.05C8.69008 12.9375 8.69008 12.7125 8.69008 12.6C8.69008 12.375 8.80008 12.2625 9.02008 12.15L11.7701 10.575L11.3301 7.425C11.3301 7.3125 11.3301 7.0875 11.4401 6.975C11.4401 6.8625 11.5501 6.75 11.7701 6.75L14.9601 6.525L15.8401 3.4875C15.8401 3.375 16.0601 3.15 16.1701 3.15C16.2801 3.0375 16.5001 3.0375 16.6101 3.15L19.4701 4.3875L21.5601 1.9125C21.6701 1.8 21.7801 1.6875 22.0001 1.6875C22.2201 1.6875 22.3301 1.8 22.4401 1.9125L24.5301 4.3875L27.5001 3.15C27.6101 3.0375 27.8301 3.0375 27.9401 3.15C28.0501 3.2625 28.1601 3.375 28.2701 3.4875L29.1501 6.6375L32.3401 6.8625C32.6701 6.8625 32.8901 7.2 32.8901 7.5375C32.8901 7.5375 32.8901 7.5375 32.8901 7.65L32.3401 10.8L35.0901 12.375C35.2001 12.4875 35.3101 12.6 35.4201 12.7125C35.4201 12.825 35.4201 13.05 35.3101 13.1625L33.4401 15.75L35.3101 18.45C35.4201 18.5625 35.4201 18.7875 35.4201 18.9C35.4201 19.0125 35.3101 19.2375 35.0901 19.2375L32.3401 20.8125L32.7801 23.9625C32.7801 24.1875 32.7801 24.3 32.6701 24.4125C32.5601 24.525 32.4501 24.6375 32.2301 24.6375L29.0401 24.8625L28.1601 28.125C28.1601 28.2375 27.9401 28.4625 27.8301 28.4625C27.7201 28.575 27.5001 28.575 27.3901 28.4625L24.4201 27.225L22.3301 29.7C22.2201 29.8125 22.1101 29.925 21.8901 29.8125Z" stroke="#DF1026" stroke-width="1.3" stroke-miterlimit="10"/>
<path d="M25.96 12.375L22 18.9C21.89 19.125 21.78 19.2375 21.56 19.2375H19.91C19.69 19.2375 19.58 19.125 19.47 18.9L18.04 16.425" stroke="#DF1026" stroke-width="1.3" stroke-miterlimit="10"/>
</svg>
