<svg width="48" height="48" viewBox="0 0 48 48" fill="none" xmlns="http://www.w3.org/2000/svg">
<path d="M40 27H39V21V14L38 13H31H30V7L29 6H27V2H25V6H23V2H21V6H19L18 7V13H17H10L9.00002 14V21V27H8.00002L7.04102 28.282L12.041 45.282L13 46H35L35.959 45.282L40.959 28.282L40 27ZM32 27V22H37V27H32ZM18 20V15H19H23V20H18ZM25 15H29H30V20H25V15ZM37 20H32V15H37V20ZM20 8H28V13H24H20V8ZM11 15H16V20H11V15ZM11 22H16V27H11V22ZM34.252 44H13.748L9.33702 29H20V27H18V22H24H30V27H28V29H38.663L34.252 44Z" fill="#DF1026"/>
<path d="M26.9999 34V32C26.9999 30.897 26.1029 30 24.9999 30V24H22.9999V30C21.8969 30 20.9999 30.897 20.9999 32V34C20.9999 34.017 21.0049 34.033 21.0049 34.051L15.5039 37.195L16.4959 38.931L22.0569 35.753C22.3399 35.905 22.6569 36 22.9999 36H24.9999C25.3429 36 25.6599 35.905 25.9429 35.753L31.5039 38.931L32.4959 37.195L26.9949 34.051C26.9949 34.033 26.9999 34.017 26.9999 34ZM22.9999 32H24.9999V34H22.9999V32Z" fill="#DF1026"/>
</svg>
