<svg width="42" height="40" viewBox="0 0 42 40" fill="none" xmlns="http://www.w3.org/2000/svg">
<path d="M20.6761 38.275H21.3061C37.4499 32.3 36.7499 10.075 36.7499 9.16667L35.8749 8.33333C33.1739 8.30519 30.5107 7.72523 28.0653 6.63262C25.6199 5.54001 23.4492 3.96022 21.6999 2H20.2999C18.5506 3.96022 16.3799 5.54001 13.9345 6.63262C11.4891 7.72523 8.8259 8.30519 6.1249 8.33333L5.2499 9.16667C5.2499 10.075 4.5324 32.3 20.6761 38.275ZM20.9999 3.78333C24.6303 7.52349 29.6579 9.75599 34.9999 10C34.9999 13.9417 34.0461 31.5083 20.9999 36.6167C7.93615 31.4917 6.9999 13.925 6.9999 10C12.3419 9.75599 17.3695 7.52349 20.9999 3.78333Z" fill="#DF1026"/>
<path d="M20.1949 23.0917L29.4962 14.2333L28.2537 13.0583L19.5824 21.325L14.6212 16.6L13.3787 17.775L18.9612 23.0917H20.1949Z" fill="#DF1026"/>
</svg>
