<svg width="49" height="49" viewBox="0 0 49 49" fill="none" xmlns="http://www.w3.org/2000/svg">
<path d="M22.4583 6.23743V14.496C23.8056 14.2221 25.1943 14.2221 26.5416 14.496V6.23743C25.1846 6.0875 23.8153 6.0875 22.4583 6.23743ZM28.5833 6.58043V15.1412C30.9425 16.1739 32.8262 18.0576 33.8589 20.4168H42.4197C41.6478 17.0428 39.9402 13.9547 37.4927 11.5073C35.0454 9.05989 31.9573 7.35224 28.5833 6.58043ZM42.7627 22.4585H34.5041C34.778 23.8058 34.778 25.1944 34.5041 26.5418H42.7627C42.9128 25.1848 42.9128 23.8155 42.7627 22.4585ZM42.4197 28.5835H33.8589C32.8262 30.9427 30.9425 32.8264 28.5833 33.8592V42.4199C31.9573 41.648 35.0454 39.9404 37.4927 37.4929C39.9402 35.0455 41.6478 31.9576 42.4197 28.5835ZM26.5416 42.7629V34.5043C25.1943 34.7782 23.8056 34.7782 22.4583 34.5043V42.7629C23.8153 42.913 25.1846 42.913 26.5416 42.7629ZM20.4166 42.4199V33.8592C18.0574 32.8264 16.1737 30.9427 15.1409 28.5835H6.58022C7.35204 31.9576 9.05969 35.0455 11.5071 37.4929C13.9545 39.9404 17.0426 41.648 20.4166 42.4199ZM6.23722 26.5418H14.4958C14.222 25.1944 14.222 23.8058 14.4958 22.4585H6.23722C6.0873 23.8155 6.0873 25.1848 6.23722 26.5418ZM6.58022 20.4168H15.1409C16.1737 18.0576 18.0574 16.1739 20.4166 15.1412V6.58043C17.0426 7.35224 13.9545 9.05989 11.5071 11.5073C9.05969 13.9547 7.35204 17.0428 6.58022 20.4168ZM21.2782 4.33664C23.4127 3.99798 25.5872 3.99798 27.7217 4.33664C33.068 5.19401 37.8552 8.13854 41.0319 12.5233C44.2086 16.9081 45.5147 22.3747 44.6634 27.7219C43.806 33.0681 40.8616 37.8554 36.4768 41.032C32.0919 44.2088 26.6254 45.5149 21.2782 44.6637C15.9319 43.8063 11.1446 40.8618 7.96799 36.4769C4.79135 32.0921 3.48518 26.6256 4.33643 21.2784C5.01699 17.0304 7.02116 13.1056 10.0633 10.0635C13.1054 7.02137 17.0302 5.0172 21.2782 4.33664ZM24.4999 16.3335C23.4269 16.3316 22.3642 16.5415 21.3724 16.9513C20.3808 17.3611 19.4798 17.9625 18.721 18.7212C17.9623 19.48 17.3608 20.381 16.9511 21.3726C16.5413 22.3644 16.3313 23.4272 16.3333 24.5002C16.3313 25.5732 16.5413 26.6359 16.9511 27.6276C17.3608 28.6193 17.9623 29.5203 18.721 30.279C19.4798 31.0378 20.3808 31.6393 21.3724 32.049C22.3642 32.4588 23.4269 32.6687 24.4999 32.6668C26.19 32.6699 27.8393 32.1475 29.2194 31.1719C30.5995 30.1964 31.6422 28.8159 32.2032 27.2217C32.5033 26.3724 32.6666 25.4557 32.6666 24.5002C32.6697 22.8101 32.1473 21.1608 31.1718 19.7807C30.1962 18.4006 28.8157 17.3579 27.2215 16.7969C26.3472 16.4889 25.4269 16.3322 24.4999 16.3335Z" fill="#DF1026"/>
</svg>
