<svg width="48" height="48" viewBox="0 0 48 48" fill="none" xmlns="http://www.w3.org/2000/svg">
<path d="M10 34.1H8V36.1H10" fill="#DF1026"/>
<path d="M6 18.1H4V20.1H6" fill="#DF1026"/>
<path d="M14 21.1H12V23.1H14" fill="#DF1026"/>
<path d="M9 23.1H7V25.1H9" fill="#DF1026"/>
<path d="M4 26.1H2V28.1H4" fill="#DF1026"/>
<path d="M16 35.1H14V37.1H16" fill="#DF1026"/>
<path d="M12 28.1H10V30.1H12" fill="#DF1026"/>
<path d="M7 30.1H5V32.1H7" fill="#DF1026"/>
<path d="M5 37.1H3V39.1H5" fill="#DF1026"/>
<path d="M12 39.1H10V41.1H12" fill="#DF1026"/>
<path d="M12 14.1H10V16.1H12" fill="#DF1026"/>
<path d="M43.0001 41.1V32.4L46.0001 22V21.7V20C46.0001 16.9 44.8001 13.7 42.9001 11.2C41.0001 8.69999 38.3001 6.69999 35.2001 6.09999C34.4001 5.89999 33.5001 5.89999 32.7001 5.89999C29.0001 5.89999 25.6001 7.39999 23.1001 9.79999C20.6001 12.2 19.1001 15.5 19.1001 19.1V23L17.1001 29.9L17.7001 31.1L20.2001 31.9L22.0001 37.4L22.9001 38.1H28.9001V41.1H30.9001V37.1L29.9001 36.1H23.6001L21.8001 30.8L21.2001 30.2L19.1001 29.5L20.8001 23.4V23.1V19.1C20.8001 16.1 22.1001 13.3 24.2001 11.2C26.3001 9.19999 29.2001 7.89999 32.4001 7.89999C33.1001 7.89999 33.8001 7.99999 34.6001 8.09999C37.1001 8.49999 39.4001 10.2 41.1001 12.4C42.8001 14.6 43.8001 17.4 43.8001 20V21.6L41.0001 32V32.3V41.1H43.0001Z" fill="#DF1026"/>
</svg>
